HIERARCHY
ROOT Hips
{
  OFFSET -278.59 84.7576 257.706
  CHANNELS 6 Xposition Yposition Zposition Zrotation Xrotation Yrotation
  JOINT ToSpine
  {
    OFFSET -0.0105055 1.38907 -7.13956
    CHANNELS 3 Zrotation Xrotation Yrotation
    JOINT Spine
    {
      OFFSET 0.0105055 10 1
      CHANNELS 3 Zrotation Xrotation Yrotation
      JOINT Spine1
      {
        OFFSET 0 12 1.60637
        CHANNELS 3 Zrotation Xrotation Yrotation
        JOINT Neck
        {
          OFFSET 0 27 2.26658
          CHANNELS 3 Zrotation Xrotation Yrotation
          JOINT Head
          {
            OFFSET 0 9 2.12705
            CHANNELS 3 Zrotation Xrotation Yrotation
            End Site
            {
              OFFSET 0 11 2
            }
          }
        }
        JOINT LeftShoulder
        {
          OFFSET 8 19.6109 2.86452
          CHANNELS 3 Zrotation Xrotation Yrotation
          JOINT LeftArm
          {
            OFFSET 12 1 0.681055
            CHANNELS 3 Zrotation Xrotation Yrotation
            JOINT LeftForeArm
            {
              OFFSET 19 0 -1.52608
              CHANNELS 3 Zrotation Xrotation Yrotation
              JOINT LeftHand
              {
                OFFSET 23 0 0
                CHANNELS 3 Zrotation Xrotation Yrotation
                End Site
                {
                  OFFSET 10 0 0
                }
              }
            }
          }
        }
        JOINT RightShoulder
        {
          OFFSET -8 19.6109 2.86452
          CHANNELS 3 Zrotation Xrotation Yrotation
          JOINT RightArm
          {
            OFFSET -12 1 0.681055
            CHANNELS 3 Zrotation Xrotation Yrotation
            JOINT RightForeArm
            {
              OFFSET -19 0 -1.52608
              CHANNELS 3 Zrotation Xrotation Yrotation
              JOINT RightHand
              {
                OFFSET -23 0 0
                CHANNELS 3 Zrotation Xrotation Yrotation
                End Site
                {
                  OFFSET -10 0 0
                }
              }
            }
          }
        }
      }
    }
  }
  JOINT LeftUpLeg
  {
    OFFSET 9 -7.17245 0
    CHANNELS 3 Zrotation Xrotation Yrotation
    JOINT LeftLeg
    {
      OFFSET 0 -44.1113 0
      CHANNELS 3 Zrotation Xrotation Yrotation
      JOINT LeftFoot
      {
        OFFSET 0 -36.1829 0
        CHANNELS 3 Zrotation Xrotation Yrotation
        JOINT LeftToeBase
        {
          OFFSET 0 -4.84184 13
          CHANNELS 3 Zrotation Xrotation Yrotation
          End Site
          {
            OFFSET 0 1 6
          }
        }
      }
    }
  }
  JOINT RightUpLeg
  {
    OFFSET -9 -7.17245 0
    CHANNELS 3 Zrotation Xrotation Yrotation
    JOINT RightLeg
    {
      OFFSET 0 -44.0551 0
      CHANNELS 3 Zrotation Xrotation Yrotation
      JOINT RightFoot
      {
        OFFSET 0 -36.1469 0
        CHANNELS 3 Zrotation Xrotation Yrotation
        JOINT RightToeBase
        {
          OFFSET 0 -4.92256 13
          CHANNELS 3 Zrotation Xrotation Yrotation
          End Site
          {
            OFFSET 0 1 6
          }
        }
      }
    }
  }
}
MOTION
Frames:	8
Frame Time:	0.0333333
-26.0787 91.3095 3.40083 1.87713 9.89376 123.21 0 0 0 -2.46361 4.73717 -0.279401 -5.7742 4.08873 0.656455 5.78708 7.18274 6.3865 -7.54588 3.74369 10.3012 -20.8454 3.27455 -8.48133 -18.0044 12.644 -18.2118 -3.96473 -5.42683 4.4323 -4.40455 0.00798112 -0.214311 14.2796 2.95358 10.3583 60.7787 -1.61157 -6.01303 2.24374 -20.3821 1.43695 3.42673 0.22249 7.38039 -9.20056 -21.4456 4.61423 0.0108457 50.1418 -17.3273 13.6764 -18.3182 2.21 -0.231882 2.11366 0.350163 -9.084 -12.8585 -5.95618 -178.213 88.149 173.698 -27.4201 -5.80166 -1.4165 6.02162 -23.4625 -4.44897 
-22.6239 94.605 0.956146 5.44925 7.90319 122.232 0 0 0 0.59445 6.30976 -1.25763 -4.2352 3.58317 -0.601814 4.47937 11.6534 6.71459 -8.17707 2.90928 10.528 -15.9503 2.84525 -8.96572 -20.5381 11.3977 -19.3208 -3.54632 -7.05944 4.64167 -4.16454 0.00168734 -0.045321 12.292 2.86915 11.2176 60.2757 -1.99116 -7.11234 2.38963 -21.5845 1.93896 3.75155 0.221625 6.79303 -4.91792 -13.1479 6.92353 0.0222713 43.1065 -18.1158 12.6787 -15.6276 1.69669 0.50872 0.12873 -2.19507 -4.82341 -16.5358 -5.13486 3.29546 88.2878 -17.4106 -29.697 -5.6055 -1.48261 6.17582 -24.1015 -4.48842 
-19.153 98.8227 -1.70121 8.63396 6.47642 121.465 0 0 0 4.11155 6.45722 -1.92658 -3.39834 4.75826 -1.39798 1.22824 17.5613 7.57655 -8.05619 1.33003 10.1637 -14.2115 2.553 -8.53207 -22.3834 9.34767 -20.106 -2.68464 -5.28615 4.63767 -4.22808 0.00892837 -0.241006 10.45 2.80758 12.2418 59.6884 -1.18251 -8.61833 2.62552 -20.4289 2.37477 5.22384 0.325095 7.07923 -2.08496 -5.28043 7.8487 -0.00477593 34.4955 -17.3211 6.57419 -5.04418 0.350224 1.59506 -5.97488 -6.19463 -1.9974 -17.7841 -4.13913 0.0852134 80.2761 -15.2871 -27.8693 -4.0594 -1.01598 5.96187 -23.6282 -5.45036 
-15.6525 102.973 -4.15486 10.3517 5.7808 121.573 0 0 0 5.94867 5.74318 -1.96385 -3.06252 6.53494 -1.64103 0.306775 22.5331 7.1353 -8.45332 -0.426903 9.42782 -12.0931 2.25267 -8.1791 -24.9328 8.39876 -22.1204 -2.34311 -3.10575 4.26535 -4.17093 0.0170381 -0.464877 10.0474 2.86252 12.8689 58.4318 0.711584 -10.2554 2.86444 -17.8778 2.24384 4.80495 0.369181 8.77627 -0.2931 -1.21352 6.56569 -0.314495 29.2793 -17.8996 2.03933 8.32435 -0.119121 1.8932 -3.63367 -7.96773 -1.05686 -17.9069 -3.40934 -0.249598 70.5782 -10.8463 -24.6312 -4.24024 -0.927261 5.02586 -19.2322 -4.17713 
-12.3197 105.577 -6.1914 9.81381 5.54589 123.135 0 0 0 5.62024 4.40506 -1.85427 -2.9 7.76572 -1.67441 1.98243 25.3306 5.39946 -8.80414 -2.02366 8.51948 -10.5665 2.08931 -8.17301 -25.9969 9.23524 -24.3598 -2.40309 -4.03095 3.59344 -4.38507 -0.00615258 0.153218 10.7877 3.09552 13.5329 57.8163 1.99259 -12.1231 3.08445 -17.35 1.85663 5.98495 0.343226 6.68589 0.289292 -2.73816 5.53025 -0.252375 31.3106 -22.026 2.77247 14.3352 -0.365366 1.10499 -4.13721 -4.15696 -1.78238 -18.897 -3.58007 0.0411723 61.5581 -9.5006 -21.1051 -6.39383 -1.18141 4.84357 -18.4285 -3.5411 
-9.11023 106.838 -7.89353 8.35493 5.87242 126.041 0 0 0 3.57865 3.86613 -1.83459 -2.0221 8.09261 -1.80941 3.35469 25.6203 3.54049 -8.0744 -2.72299 7.09572 -11.0557 2.11886 -8.0532 -25.1111 10.4076 -27.1963 -2.97056 -4.50349 4.25519 -4.47 -0.0102353 0.265425 11.5115 3.13873 13.1791 58.3232 1.89473 -13.7433 3.08158 -17.3691 1.35537 6.19591 0.324193 5.96901 0.127832 -6.89927 5.47593 -0.0131134 36.3694 -23.6423 2.95805 14.7083 -0.382882 0.988685 -4.8221 -3.3306 -3.60232 -19.4585 -4.6877 0.0139215 52.1913 -9.13677 -22.7907 -7.93821 -1.61925 5.03302 -19.3881 -4.38715 
-5.93179 107.337 -9.39013 7.93831 6.41422 128.655 0 0 0 1.99339 5.79426 -1.63937 -1.58597 6.72329 -1.5741 5.61329 25.5856 1.28021 -8.11175 -2.90866 5.89358 -11.1353 2.19565 -8.42212 -26.7548 9.6303 -29.5437 -3.61257 -1.80441 4.57872 -5.03343 -0.0182281 0.410403 12.6198 3.19791 12.6377 59.1912 0.826131 -15.7205 3.02035 -17.6166 1.53353 6.15893 0.330967 6.14571 0.887839 -9.74328 7.50313 0.0288784 38.0417 -23.631 -0.762914 15.2667 0.106098 0.441798 -7.85739 0.322681 -4.65421 -17.6753 -4.14592 0.0700418 41.0323 -8.84182 -18.9375 -11.2568 -1.86315 4.53062 -16.7866 -0.814652 
-2.74345 106.814 -10.9344 7.76246 6.37176 130.814 0 0 0 1.41575 8.03521 -1.75068 -1.72511 4.83781 -1.46403 7.61742 25.2985 -0.411179 -8.08434 -2.81981 5.14254 -11.4442 2.23467 -8.44973 -27.8978 11.2996 -29.5127 -3.87633 -2.69348 4.58871 -4.72688 -0.0187176 0.455931 13.8723 3.39806 12.7043 59.9804 0.0767823 -17.326 3.02714 -17.4019 2.00726 6.12666 0.33849 6.31883 2.17464 -12.0239 11.1326 -0.0403329 35.8477 -22.898 0.41624 15.5352 -0.0637571 0.83049 -8.32555 -1.59216 -4.87347 -14.8116 -4.45006 -0.0638436 27.8854 -6.19744 -20.9117 -9.75244 -1.78326 4.89679 -18.3976 -2.41491 
